# This file uses centimeters as units for non-parametric coordinates.

mtllib Cartel.mtl
g default
v -0.867503 0.005304 -0.068140
v -0.507942 0.005304 -0.068140
v -0.867503 0.864568 0.254507
v -0.507942 0.864568 0.254507
v -0.757819 0.974466 -0.038170
v -0.577511 0.974466 -0.038170
v -0.757819 -0.006181 -0.360817
v -0.577511 -0.006181 -0.360817
v -2.228664 0.005304 -0.068140
v -2.588225 0.005304 -0.068140
v -2.228664 0.864568 0.254507
v -2.588225 0.864568 0.254507
v -2.338348 0.974466 -0.038170
v -2.518657 0.974466 -0.038170
v -2.338348 -0.006181 -0.360817
v -2.518657 -0.006181 -0.360817
v -0.577511 3.906090 1.062630
v -0.757819 3.906090 1.062630
v -2.126041 3.796192 1.355307
v -2.338348 3.906090 1.062630
v -2.518657 3.906090 1.062630
v -0.773607 1.196527 0.115172
v -0.773607 3.684028 0.991574
v -2.322560 1.196527 0.115172
v -2.322560 3.684028 0.991574
v -0.960975 3.534778 1.257148
v -0.507942 3.534778 1.257148
v -0.528893 3.898558 1.267168
v -0.906190 3.922267 1.267168
v -2.135193 3.534778 1.257148
v -2.189977 3.922267 1.267168
v -2.588225 3.534778 1.257148
v -2.567274 3.898558 1.267168
v -0.867503 0.094344 2.345307
v -0.507942 0.094344 2.345307
v -0.867503 0.931931 2.080390
v -0.507942 0.931931 2.080390
v -0.757819 1.063728 2.381290
v -0.577511 1.063728 2.381290
v -0.757819 0.104758 2.646206
v -0.577511 0.104758 2.646206
v -2.228664 0.094344 2.345307
v -2.588225 0.094344 2.345307
v -2.228664 0.931931 2.080390
v -2.588225 0.931931 2.080390
v -2.338348 1.063728 2.381290
v -2.518657 1.063728 2.381290
v -2.338348 0.104758 2.646206
v -2.518657 0.104758 2.646206
v -0.577511 3.921394 1.477452
v -0.757819 3.921394 1.477452
v -2.126041 3.789597 1.176552
v -2.338348 3.921394 1.477452
v -2.518657 3.921394 1.477452
v -0.773607 1.280187 2.242867
v -0.773607 3.704934 1.523276
v -2.322560 1.280187 2.242867
v -2.322560 3.704934 1.523276
v -2.228664 0.864568 0.254507
v -2.228664 0.864568 0.254507
v -2.228664 0.864568 0.254507
v -2.228664 0.864568 0.254507
v -2.228664 0.864568 0.254507
v -2.228664 0.864568 0.254507
v -2.338348 0.974466 -0.038170
v -2.338348 0.974466 -0.038170
v -2.338348 0.974466 -0.038170
v -2.338348 0.974466 -0.038170
v -2.338348 0.974466 -0.038170
v -2.338348 0.974466 -0.038170
v -2.338348 0.974466 -0.038170
v -2.338348 3.906090 1.062630
v -2.338348 3.906090 1.062630
v -2.338348 3.906090 1.062630
v -2.338348 3.906090 1.062630
v -2.338348 3.906090 1.062630
v -2.338348 3.906090 1.062630
v -2.135193 3.534778 1.257148
v -2.135193 3.534778 1.257148
v -2.135193 3.534778 1.257148
v -2.135193 3.534778 1.257148
v -2.135193 3.534778 1.257148
v -2.135193 3.534778 1.257148
v -2.135193 3.534778 1.257148
v -2.228664 0.931931 2.080390
v -2.228664 0.931931 2.080390
v -2.228664 0.931931 2.080390
v -2.228664 0.931931 2.080390
v -2.228664 0.931931 2.080390
v -2.228664 0.931931 2.080390
v -2.338348 1.063728 2.381290
v -2.338348 1.063728 2.381290
v -2.338348 1.063728 2.381290
v -2.338348 1.063728 2.381290
v -2.338348 1.063728 2.381290
v -2.338348 1.063728 2.381290
v -2.338348 1.063728 2.381290
v -2.338348 3.921394 1.477452
v -2.338348 3.921394 1.477452
v -2.338348 3.921394 1.477452
v -2.338348 3.921394 1.477452
v -2.338348 3.921394 1.477452
v -2.338348 3.921394 1.477452
vt 0.208245 0.568861
vt 0.207946 0.531586
vt 0.314767 0.530729
vt 0.315066 0.568004
vt 0.679217 0.527806
vt 0.679426 0.553855
vt 0.647018 0.565341
vt 0.401564 0.767091
vt 0.698869 0.573036
vt 0.429385 0.794538
vt 0.322578 0.832014
vt 0.350399 0.859460
vt 0.270329 0.036730
vt 0.282097 0.000010
vt 0.383826 0.032611
vt 0.372058 0.069332
vt 0.202747 0.494407
vt 0.309525 0.491264
vt 0.310622 0.528524
vt 0.203844 0.531666
vt 0.641345 0.481500
vt 0.674160 0.491764
vt 0.674926 0.517803
vt 0.415284 0.260610
vt 0.692871 0.471869
vt 0.388511 0.289079
vt 0.307149 0.227159
vt 0.333923 0.198690
vt 0.734379 0.000010
vt 0.722611 0.036730
vt 0.572435 0.469945
vt 0.801418 0.674477
vt 0.881704 0.000024
vt 0.902684 0.000467
vt 0.910012 0.037015
vt 0.868173 0.036133
vt 0.125874 0.000026
vt 0.140563 0.035678
vt 0.098774 0.037911
vt 0.104918 0.001145
vt 0.010624 0.000002
vt 0.046211 0.014848
vt 0.037062 0.173004
vt 0.139198 0.409789
vt 0.192617 0.382755
vt 0.184874 0.402462
vt 0.166259 0.396147
vt 0.126624 0.374797
vt 0.185527 0.381898
vt 0.000000 0.246295
vt 0.374789 0.132344
vt 0.358433 0.119901
vt 0.019807 0.229702
vt 0.143207 0.354011
vt 0.339488 0.138191
vt 0.410347 0.036570
vt 0.428092 0.046346
vt 0.222890 0.000838
vt 0.207851 0.020318
vt 0.140363 0.028031
vt 0.370929 0.027483
vt 0.920160 0.883640
vt 0.904564 0.222813
vt 0.907463 0.120610
vt 0.388355 0.116289
vt 0.428636 0.117775
vt 0.672008 0.421516
vt 0.673078 0.319278
vt 0.714923 0.319716
vt 0.713854 0.421954
vt 0.665522 0.001455
vt 0.718246 0.002006
vt 0.684373 0.459881
vt 0.705358 0.460100
vt 0.514666 0.317622
vt 0.515273 0.102269
vt 0.473425 0.102412
vt 0.867358 0.826572
vt 0.502638 0.140545
vt 0.481652 0.140616
vt 0.862975 0.508874
vt 0.471578 0.000024
vt 0.433209 0.012374
vt 0.421736 0.843246
vt 0.421090 0.801403
vt 0.527902 0.799755
vt 0.528547 0.841598
vt 0.859825 0.794634
vt 0.860639 0.847355
vt 0.382806 0.608875
vt 0.383752 0.587850
vt 0.490459 0.590140
vt 0.489725 0.611062
vt 0.020562 0.569660
vt 0.022912 0.548865
vt 0.355067 0.607721
vt 0.047911 0.574464
vt 0.362593 0.791763
vt 0.335326 0.787103
vt 0.027656 0.753526
vt 0.087050 0.000022
vt 0.075919 0.114210
vt 0.046788 0.011434
vt 0.909762 0.403339
vt 0.847164 0.108889
vt 0.826584 0.104783
vt 0.736870 0.793117
vt 0.712214 0.429490
vt 0.762331 0.050065
vt 0.789798 0.148550
vt 0.750078 0.155408
vt 0.722611 0.056923
vt 0.940710 0.022154
vt 0.962571 0.000000
vt 0.972985 0.008916
vt 0.530991 1.000000
vt 0.717413 0.319627
vt 0.234692 0.327646
vt 0.824339 0.069332
vt 0.116181 0.102798
vt 0.997323 0.080409
vt 0.362263 0.791869
vt 0.754799 0.310187
vt -0.000000 0.183647
vt 0.836107 0.032611
vt 0.223542 0.364560
vt 0.757808 0.791698
vt 0.868068 0.004130
vt 0.205136 0.543701
vt 0.000000 0.751956
vt 0.391884 0.026349
vt 0.844024 0.663558
vt 0.000244 0.752364
vt 0.733151 0.428070
vt 0.528866 0.000025
vt 0.915696 0.508147
vt 0.938927 0.531149
vt 0.554037 0.418948
vt 0.961978 0.410664
vt 0.793927 0.642834
vt 0.862747 0.984001
vt 0.029258 0.504757
vt 0.969793 0.547402
vt 0.184222 0.025852
vt 0.581427 0.440552
vt 0.407753 0.000025
vt 0.180578 0.541783
vt 0.814249 0.671189
vt 0.738207 0.284611
vt 0.717413 0.248444
vt 0.431487 0.170785
vt 0.909202 0.825994
vt 0.414583 0.219048
vt 0.514924 0.000026
vt 0.223811 0.000013
vt 0.771535 0.261940
vt 0.748428 0.274188
vt 0.469579 0.183966
vt 0.944190 0.535003
vt 0.374302 0.217562
vt 0.925541 0.223408
vt 0.941144 0.883823
vt 0.003526 0.246674
vt 0.997152 0.029605
vt 0.004286 0.493655
vt 0.995822 0.529110
vt 0.165649 0.000023
vt 0.144689 0.001064
vt 0.928440 0.121205
vt 0.923206 0.534820
vt 0.473076 0.000169
vt 0.363905 0.002397
vt 0.847488 0.000023
vt 0.955881 0.074595
vn 0.000000 -0.351527 0.936178
vn 0.000000 -0.351527 0.936178
vn 0.000000 -0.351527 0.936178
vn 0.000000 -0.351527 0.936178
vn 0.000000 0.312532 -0.949907
vn 0.000000 0.312532 -0.949907
vn 0.000000 0.312532 -0.949907
vn 0.000000 0.312532 -0.949907
vn 0.000000 -0.999231 0.039212
vn 0.000000 -0.999231 0.039212
vn 0.000000 -0.999231 0.039212
vn 0.000000 -0.999231 0.039212
vn 0.972856 0.076586 -0.218369
vn 0.972856 0.076586 -0.218369
vn 0.972856 0.076586 -0.218369
vn 0.972856 0.076586 -0.218369
vn -0.936320 0.116214 -0.331359
vn -0.936320 0.116214 -0.331359
vn -0.936320 0.116214 -0.331359
vn -0.936320 0.116214 -0.331359
vn 0.000000 -0.351527 0.936178
vn 0.000000 -0.351527 0.936178
vn 0.000000 -0.351527 0.936178
vn 0.000000 -0.351527 0.936178
vn 0.000000 0.312532 -0.949907
vn 0.000000 0.312532 -0.949907
vn 0.000000 0.312532 -0.949907
vn 0.000000 0.312532 -0.949907
vn 0.000000 -0.999231 0.039212
vn 0.000000 -0.999231 0.039212
vn 0.000000 -0.999231 0.039212
vn 0.000000 -0.999231 0.039212
vn -0.972857 0.076586 -0.218368
vn -0.972857 0.076586 -0.218368
vn -0.972857 0.076586 -0.218368
vn -0.972857 0.076586 -0.218368
vn 0.936320 0.116214 -0.331360
vn 0.936320 0.116214 -0.331360
vn 0.936320 0.116214 -0.331360
vn 0.936320 0.116214 -0.331360
vn 0.000000 -0.351527 0.936178
vn 0.000000 -0.351527 0.936178
vn 0.000000 -0.351527 0.936178
vn 0.000000 -0.351527 0.936178
vn 0.975962 0.075815 -0.204327
vn 0.975962 0.075815 -0.204327
vn 0.975963 0.075815 -0.204327
vn 0.991305 0.073680 -0.109021
vn 0.997281 0.069602 0.024221
vn 0.000000 0.351527 -0.936178
vn 0.000000 0.351527 -0.936178
vn 0.000000 0.351527 -0.936178
vn 0.000000 0.351527 -0.936178
vn -0.888154 -0.145283 0.435976
vn -0.888154 -0.145283 0.435976
vn -0.888154 -0.145283 0.435976
vn -0.888154 -0.145283 0.435976
vn -0.888154 -0.145283 0.435976
vn 0.888089 0.145128 -0.436160
vn 0.888089 0.145128 -0.436160
vn 0.888089 0.145128 -0.436160
vn 0.888089 0.145128 -0.436160
vn 0.888089 0.145128 -0.436160
vn 0.888089 0.145128 -0.436160
vn 0.000000 0.351527 -0.936178
vn 0.000000 0.351527 -0.936178
vn 0.000000 0.351527 -0.936178
vn 0.000000 0.351527 -0.936178
vn -0.975963 0.075815 -0.204325
vn -0.975963 0.075815 -0.204325
vn -0.997281 0.069601 0.024220
vn -0.991305 0.073679 -0.109020
vn -0.975963 0.075815 -0.204325
vn 0.000000 -0.351527 0.936178
vn 0.000000 -0.351527 0.936178
vn 0.000000 -0.351527 0.936178
vn 0.000000 -0.351527 0.936178
vn 0.000000 -0.936178 -0.351527
vn 0.000000 -0.936178 -0.351527
vn 0.000000 -0.936178 -0.351527
vn 0.000000 -0.936178 -0.351527
vn 0.000000 -0.351527 0.936178
vn 0.000000 -0.351527 0.936178
vn 0.000000 -0.351527 0.936178
vn 0.000000 -0.351527 0.936178
vn 0.000000 0.332301 -0.943173
vn 0.000000 0.332301 -0.943173
vn 0.000000 0.332301 -0.943173
vn 0.000000 0.332301 -0.943173
vn -0.925742 0.129614 -0.355248
vn -0.925742 0.129614 -0.355248
vn -0.925742 0.129614 -0.355248
vn -0.925742 0.129614 -0.355248
vn 0.000000 0.568226 -0.822873
vn 0.000000 0.568226 -0.822873
vn 0.000000 0.568226 -0.822873
vn 0.000000 0.568226 -0.822873
vn 0.925742 0.129614 -0.355248
vn 0.925742 0.129614 -0.355248
vn 0.925742 0.129614 -0.355248
vn 0.925742 0.129614 -0.355248
vn 0.000000 0.304761 -0.952429
vn 0.000000 0.304761 -0.952429
vn 0.000000 0.304761 -0.952429
vn 0.000000 0.304761 -0.952429
vn 0.042479 0.999039 -0.010755
vn 0.042479 0.999039 -0.010755
vn 0.042479 0.999039 -0.010755
vn 0.042479 0.999039 -0.010755
vn -0.042479 0.999039 -0.010755
vn -0.042479 0.999039 -0.010754
vn -0.042479 0.999039 -0.010755
vn -0.042479 0.999039 -0.010755
vn 0.000000 0.996887 -0.078846
vn 0.000000 0.996887 -0.078846
vn 0.000000 0.996887 -0.078846
vn 0.000000 0.996887 -0.078846
vn 0.000000 -0.301562 -0.953447
vn 0.000000 -0.301562 -0.953447
vn 0.000000 -0.301562 -0.953447
vn 0.000000 -0.301562 -0.953447
vn 0.000000 0.266277 0.963896
vn 0.000000 0.266277 0.963896
vn 0.000000 0.266277 0.963896
vn 0.000000 0.266277 0.963896
vn 0.000000 -0.999402 0.034588
vn 0.000000 -0.999402 0.034588
vn 0.000000 -0.999402 0.034588
vn 0.000000 -0.999402 0.034588
vn 0.975538 0.062183 0.210852
vn 0.975538 0.062183 0.210852
vn 0.975538 0.062183 0.210852
vn 0.975538 0.062183 0.210852
vn -0.942296 0.094700 0.321108
vn -0.942296 0.094700 0.321108
vn -0.942296 0.094700 0.321108
vn -0.942296 0.094700 0.321108
vn 0.000000 -0.301562 -0.953447
vn 0.000000 -0.301562 -0.953447
vn 0.000000 -0.301562 -0.953447
vn 0.000000 -0.301562 -0.953447
vn 0.000000 0.266277 0.963897
vn 0.000000 0.266277 0.963897
vn 0.000000 0.266277 0.963897
vn 0.000000 0.266277 0.963897
vn 0.000000 -0.999402 0.034588
vn 0.000000 -0.999402 0.034588
vn 0.000000 -0.999402 0.034588
vn 0.000000 -0.999402 0.034588
vn -0.975539 0.062183 0.210850
vn -0.975539 0.062183 0.210850
vn -0.975539 0.062183 0.210850
vn -0.975539 0.062183 0.210850
vn 0.942296 0.094700 0.321109
vn 0.942296 0.094700 0.321109
vn 0.942296 0.094700 0.321109
vn 0.942296 0.094700 0.321109
vn 0.000000 -0.301561 -0.953447
vn 0.000000 -0.301561 -0.953447
vn 0.000000 -0.301561 -0.953447
vn 0.000000 -0.301561 -0.953447
vn 0.977924 0.062318 0.199450
vn 0.977924 0.062318 0.199450
vn 0.977924 0.062318 0.199450
vn 0.000000 0.301561 0.953447
vn 0.000000 0.301561 0.953447
vn 0.000000 0.301561 0.953447
vn 0.000000 0.301561 0.953447
vn -0.895499 -0.117351 -0.429314
vn -0.895499 -0.117351 -0.429314
vn -0.895499 -0.117351 -0.429314
vn -0.895499 -0.117351 -0.429314
vn -0.895499 -0.117351 -0.429314
vn 0.895276 0.117276 0.429799
vn 0.895276 0.117276 0.429799
vn 0.895276 0.117276 0.429799
vn 0.895276 0.117276 0.429799
vn 0.895276 0.117276 0.429798
vn 0.895276 0.117276 0.429799
vn 0.000000 0.301561 0.953447
vn 0.000000 0.301561 0.953447
vn 0.000000 0.301561 0.953447
vn 0.000000 0.301561 0.953447
vn -0.977925 0.062317 0.199449
vn -0.977925 0.062317 0.199449
vn -0.977925 0.062317 0.199449
vn 0.000000 -0.301561 -0.953447
vn 0.000000 -0.301561 -0.953447
vn 0.000000 -0.301561 -0.953447
vn 0.000000 -0.301561 -0.953447
vn 0.000000 -0.915986 0.401210
vn 0.000000 -0.915986 0.401210
vn 0.000000 -0.915986 0.401210
vn 0.000000 -0.915986 0.401210
vn 0.000000 -0.301561 -0.953447
vn 0.000000 -0.301561 -0.953447
vn 0.000000 -0.301561 -0.953447
vn 0.000000 -0.301561 -0.953447
vn 0.000000 0.284505 0.958675
vn 0.000000 0.284505 0.958675
vn 0.000000 0.284505 0.958675
vn 0.000000 0.284505 0.958675
vn -0.941860 0.098707 0.321182
vn -0.941860 0.098707 0.321181
vn -0.941860 0.098707 0.321182
vn -0.941859 0.098707 0.321182
vn 0.000000 0.538747 0.842468
vn 0.000000 0.538747 0.842468
vn 0.000000 0.538747 0.842468
vn 0.000000 0.538747 0.842468
vn 0.941859 0.098708 0.321182
vn 0.941859 0.098708 0.321182
vn 0.941859 0.098708 0.321182
vn 0.941859 0.098708 0.321182
vn 0.000000 0.207109 0.978318
vn 0.000000 0.207109 0.978318
vn 0.000000 0.207109 0.978318
vn 0.000000 0.207109 0.978318
vn 0.042399 0.997167 -0.062131
vn 0.042399 0.997167 -0.062131
vn 0.042399 0.997167 -0.062131
vn 0.042399 0.997167 -0.062131
vn -0.042400 0.997167 -0.062130
vn -0.042400 0.997167 -0.062130
vn -0.042400 0.997167 -0.062130
vn -0.042400 0.997167 -0.062130
vn 0.000000 0.999991 0.004153
vn 0.000000 0.999991 0.004153
vn 0.000000 0.999991 0.004153
vn 0.000000 0.999991 0.004153
s off
g pCube1
usemtl initialShadingGroup
f 1/84/1 2/85/2 4/86/3 3/87/4
f 5/90/5 6/91/6 8/92/7 7/93/8
f 7/33/9 8/34/10 2/35/11 1/36/12
f 2/1/13 8/2/14 6/3/15 4/4/16
f 7/13/17 1/14/18 3/15/19 5/16/20
f 9/101/21 64/120/22 12/102/23 10/103/24
f 70/128/25 15/105/26 16/106/27 14/173/28
f 15/37/29 9/38/30 10/39/31 16/40/32
f 10/17/33 12/18/34 14/19/35 16/20/36
f 15/29/37 71/125/38 63/119/39 9/30/40
f 3/87/41 4/86/42 27/88/43 26/89/44
s 1
f 4/4/45 6/3/46 17/5/47 28/6/48 27/7/49
s off
f 6/91/50 5/90/51 18/94/52 17/95/53
f 68/126/54 60/118/55 83/138/56 31/145/57 20/31/58
f 62/117/59 67/123/60 73/132/61 31/148/62 19/32/63 84/140/64
f 69/127/65 14/107/66 21/108/67 77/134/68
s 2
f 14/19/69 12/18/70 32/21/71 33/22/72 21/23/73
s off
f 12/174/74 61/121/75 82/139/76 32/104/77
f 5/41/78 3/42/79 11/43/80 66/124/81
f 3/87/82 26/89/83 81/141/84 59/116/85
f 23/97/86 22/96/87 24/99/88 25/100/89
f 18/94/90 5/90/91 22/96/92 23/97/93
f 5/90/94 13/98/95 24/99/96 22/96/97
f 65/122/98 75/133/99 25/100/100 24/99/101
f 76/130/102 18/94/103 23/97/104 25/100/105
f 29/44/106 28/45/107 17/46/108 18/47/109
f 33/172/110 31/146/111 72/131/112 21/61/113
f 31/147/114 29/44/115 18/47/116 74/129/117
f 34/67/118 36/68/119 37/69/120 35/70/121
f 38/52/122 40/56/123 41/57/124 39/51/125
f 40/73/126 34/67/127 35/70/128 41/74/129
f 35/11/130 37/8/131 39/10/132 41/12/133
f 40/109/134 38/110/135 36/111/136 34/112/137
f 42/76/138 43/77/139 45/171/140 90/154/141
f 97/161/142 47/63/143 49/64/144 48/169/145
f 48/79/146 49/80/147 43/77/148 42/76/149
f 43/27/150 49/28/151 47/24/152 45/26/153
f 48/65/154 42/66/155 89/153/156 96/160/157
f 36/68/158 26/71/159 27/72/160 37/69/161
s 1
f 37/8/162 27/7/49 28/6/48 50/9/163 39/10/164
s off
f 39/51/165 50/49/166 51/48/167 38/52/168
f 93/156/169 102/166/170 31/143/171 79/137/172 87/149/173
f 86/150/174 30/113/175 52/114/176 31/115/177 103/164/178 95/157/179
f 94/159/180 100/162/181 54/62/182 47/170/183
s 2
f 47/24/184 54/25/185 33/22/72 32/21/71 45/26/186
s off
f 45/78/187 32/81/188 80/136/189 88/152/190
f 38/82/191 92/158/192 85/151/193 36/83/194
f 36/68/195 44/75/196 78/135/197 26/71/198
f 56/54/199 58/53/200 57/59/201 55/55/202
f 51/48/203 56/54/204 55/55/205 38/52/206
f 38/52/207 55/55/208 57/59/209 91/155/210
f 46/58/211 57/59/212 58/53/213 99/163/214
f 53/50/215 58/53/216 56/54/217 51/48/218
f 29/44/219 51/48/220 50/49/221 28/45/222
f 33/60/223 54/168/224 101/167/225 31/144/226
f 31/142/227 98/165/228 51/48/229 29/44/230
